<svg id="Capa_1" enable-background="new 0 0 512.02 512.02" height="512" viewBox="0 0 512.02 512.02" width="512" xmlns="http://www.w3.org/2000/svg"><g><path id="XMLID_1235_" d="m0 255.002c0-140.932 114.05-255 255-255 68.204 0 257.819 191.944 256.998 258.051-.801 64.527-189.491 253.176-254.075 253.948-141.524 1.692-257.923-114.423-257.923-256.999z" fill="#667197"/><path id="XMLID_1267_" d="m436.312 436.314c100.07-100.07 101.834-260.95-.06-361.685-48.679-48.125-113.048-74.627-181.252-74.627v512c69.737 0 134.112-28.488 181.312-75.688z" fill="#4d5788"/><path id="XMLID_1238_" d="m255 452.002c-107.844 0-195-89.27-195-197 0-107.523 87.477-195 195-195 107.857 0 197 87.271 197 195 0 107.595-89 197-197 197z" fill="#eef4ff"/><path id="XMLID_1137_" d="m452 255.002c0-107.844-89.27-195-197-195v392c107.596 0 197-89 197-197z" fill="#d9e6fc"/><path id="XMLID_1239_" d="m240 392.002v67.093c10.026.874 19.93.876 30 .005v-67.098z" fill="#667197"/><path id="XMLID_958_" d="m270 459.099v-67.098h-15v67.75c2.072-.046 6.863.052 15-.652z" fill="#4d5788"/><path id="XMLID_1236_" d="m270 120.002v-66.698c-10.073-.849-20.035-.849-30 .006v66.691h30z" fill="#667197"/><path id="XMLID_1230_" d="m255 52.669v67.333h15v-66.698c-4.969-.419-9.971-.635-15-.635z" fill="#4d5788"/><path id="XMLID_1242_" d="m120 240.002h-67.353c-.873 10.084-.851 20.074-.005 30h67.358z" fill="#667197"/><path id="XMLID_1244_" d="m460.274 240.002h-68.274v30h68.278c.887-10.067.887-19.971-.004-30z" fill="#4d5788"/><path id="XMLID_1241_" d="m166.203 343.799 50.741-126.854 126.853-50.74-50.74 126.853z" fill="#dd517b"/><path id="XMLID_1302_" d="m216.944 216.945 76.113 76.113 50.74-126.853z" fill="#b53e67"/></g></svg>