<?xml version="1.0" encoding="iso-8859-1"?>
<!-- Generator: Adobe Illustrator 19.0.0, SVG Export Plug-In . SVG Version: 6.00 Build 0)  -->
<svg version="1.1" id="Capa_1" xmlns="http://www.w3.org/2000/svg" xmlns:xlink="http://www.w3.org/1999/xlink" x="0px" y="0px"
	 viewBox="0 0 480 480" style="enable-background:new 0 0 480 480;" xml:space="preserve">
<path style="fill:#EEEEED;" d="M384,80.154c-11.2-41.6-58.4-72-112-72c-52.8,0-92,31.2-104,72c-32.8,0.8-63.2,15.2-72,40
	c-2.4,0-5.6,0-8,0c-44.8,0-80,32.8-80,72s35.2,72,80,72h280c57.6-1.6,104-46.4,104-96C472,122.554,434.4,88.154,384,80.154z"/>
<g>
	<path style="fill:#6CC3E1;" d="M378.4,320.154c-11.2,0-22.4-4.8-29.6-13.6c-19.2-22.4-53.6-24-75.2-4.8c-1.6,1.6-3.2,3.2-4.8,4.8
		c-12.8,16-36.8,18.4-52.8,5.6c-1.6-1.6-4-3.2-5.6-5.6c-19.2-22.4-53.6-24-75.2-4.8c-1.6,1.6-3.2,3.2-4.8,4.8
		c-12.8,16-36.8,18.4-52.8,5.6c-1.6-1.6-4-3.2-5.6-5.6c-10.4-12-24.8-18.4-40-18.4v16c11.2,0,21.6,4.8,29.6,13.6
		c19.2,22.4,53.6,24,75.2,4.8c1.6-1.6,3.2-3.2,4.8-4.8c12.8-16,36.8-18.4,52.8-5.6c1.6,1.6,4,3.2,5.6,5.6
		c19.2,22.4,53.6,24,75.2,4.8c1.6-1.6,3.2-3.2,4.8-4.8c12.8-16,36.8-18.4,52.8-5.6c1.6,1.6,4,3.2,5.6,5.6
		c19.2,22.4,53.6,24,75.2,4.8c1.6-1.6,3.2-3.2,4.8-4.8c7.2-8.8,17.6-13.6,29.6-13.6v-16c-15.2,0-29.6,6.4-40,18.4
		C400.8,315.354,389.6,320.154,378.4,320.154z"/>
	<path style="fill:#6CC3E1;" d="M378.4,392.154c-11.2,0-22.4-4.8-29.6-13.6c-19.2-22.4-53.6-24-75.2-4.8c-1.6,1.6-3.2,3.2-4.8,4.8
		c-12.8,16-36.8,18.4-52.8,5.6c-1.6-1.6-4-3.2-5.6-5.6c-19.2-22.4-53.6-24-75.2-4.8c-1.6,1.6-3.2,3.2-4.8,4.8
		c-12.8,16-36.8,18.4-52.8,5.6c-1.6-1.6-4-3.2-5.6-5.6c-10.4-12-24.8-18.4-40-18.4v16c11.2,0,21.6,4.8,29.6,13.6
		c19.2,22.4,53.6,24,75.2,4.8c1.6-1.6,3.2-3.2,4.8-4.8c12.8-16,36.8-18.4,52.8-5.6c1.6,1.6,4,3.2,5.6,5.6
		c19.2,22.4,53.6,24,75.2,4.8c1.6-1.6,3.2-3.2,4.8-4.8c12.8-16,36.8-18.4,52.8-5.6c1.6,1.6,4,3.2,5.6,5.6
		c19.2,22.4,53.6,24,75.2,4.8c1.6-1.6,3.2-3.2,4.8-4.8c7.2-8.8,17.6-13.6,29.6-13.6v-16c-15.2,0-29.6,6.4-40,18.4
		C400.8,387.354,389.6,392.154,378.4,392.154z"/>
	<path style="fill:#6CC3E1;" d="M378.4,464.154c-11.2,0-22.4-4.8-29.6-13.6c-19.2-22.4-53.6-24-75.2-4.8c-1.6,1.6-3.2,3.2-4.8,4.8
		c-12.8,16-36.8,18.4-52.8,5.6c-1.6-1.6-4-3.2-5.6-5.6c-19.2-22.4-53.6-24-75.2-4.8c-1.6,1.6-3.2,3.2-4.8,4.8
		c-12.8,16-36.8,18.4-52.8,5.6c-1.6-1.6-4-3.2-5.6-5.6c-10.4-12-24.8-18.4-40-18.4v16c11.2,0,21.6,4.8,29.6,13.6
		c19.2,22.4,53.6,24,75.2,4.8c1.6-1.6,3.2-3.2,4.8-4.8c12.8-16,36.8-18.4,52.8-5.6c1.6,1.6,4,3.2,5.6,5.6
		c19.2,22.4,53.6,24,75.2,4.8c1.6-1.6,3.2-3.2,4.8-4.8c12.8-16,36.8-18.4,52.8-5.6c1.6,1.6,4,3.2,5.6,5.6
		c19.2,22.4,53.6,24,75.2,4.8c1.6-1.6,3.2-3.2,4.8-4.8c7.2-8.8,17.6-13.6,29.6-13.6v-16c-15.2,0-29.6,6.4-40,18.4
		C400.8,459.354,389.6,464.154,378.4,464.154z"/>
</g>
<path d="M390.4,72.954c-14.4-42.4-63.2-72.8-118.4-72.8c-51.2,0-94.4,28.8-109.6,72c-32.8,2.4-60,17.6-71.2,40H88
	c-48.8,0-88,36-88,80s39.2,80,88,80h280c60.8-2.4,112-49.6,112-104C480,121.754,443.2,83.354,390.4,72.954z M368,256.154H88
	c-40,0-72-28.8-72-64s32-64,72-64h7.2c3.2,0,7.2-1.6,8-5.6c7.2-20,33.6-34.4,64.8-34.4c3.2,0,6.4-2.4,7.2-5.6
	c12-40,50.4-66.4,96.8-66.4c49.6,0,94.4,28,104,66.4c0.8,3.2,3.2,5.6,6.4,5.6c48,7.2,81.6,40,81.6,80
	C464,213.754,420,254.554,368,256.154z"/>
<g>
</g>
<g>
</g>
<g>
</g>
<g>
</g>
<g>
</g>
<g>
</g>
<g>
</g>
<g>
</g>
<g>
</g>
<g>
</g>
<g>
</g>
<g>
</g>
<g>
</g>
<g>
</g>
<g>
</g>
</svg>
