<svg id="Capa_1" enable-background="new 0 0 512 512" height="512" viewBox="0 0 512 512" width="512" xmlns="http://www.w3.org/2000/svg"><g><path d="m158.271 194.883h-88.555c-4.267 0-7.726-3.459-7.726-7.726s3.459-7.726 7.726-7.726h88.555c4.267 0 7.726 3.459 7.726 7.726s-3.459 7.726-7.726 7.726z" fill="#dddaec"/><path d="m444.119 95.99c-33.81-13.689-67.783-22.817-99.735-28.808-16.309 3.533-69.498 14.533-69.498 14.533l-25.319-24.798c-47.709-1.585-79.234 2.622-79.234 2.622-20.284 0-36.727 57.136-36.727 127.618s16.443 127.618 36.727 127.618c0 0 30.366 4.052 76.595 2.703 12.856-.375 21.17-28.853 36.167-30.266 17.361-1.636 41.716 23.58 61.044 19.964 32.023-5.991 66.083-15.131 99.98-28.854" fill="#dd636e"/><path d="m444.114 235.214v43.113c-33.895 13.722-67.953 22.861-99.975 28.85-16.595 3.104-45.85-21.578-61.045-19.966-17.791 1.888-21.206 29.83-36.166 30.267-46.229 1.348-76.595-2.703-76.595-2.703-13.258 0-24.869-24.395-31.328-60.966 1.803.412 3.647.628 5.511.628 0 0 151.231 9.715 299.598-19.223z" fill="#da4a54"/><path d="m475.012 187.153c0 50.994-16.442 92.335-36.726 92.335s-36.726-41.341-36.726-92.335c0-9.148.525-17.977 1.514-26.321 4.502-38.158 18.564-66.004 35.212-66.004s30.71 27.846 35.212 66.004c.989 8.344 1.514 17.173 1.514 26.321z" fill="#dddaec"/><path d="m344.395 307.128c-34.995 6.562-67.57 9.364-94.849 10.261-11.693-4.45-21.778-27.454-27.753-60.358-3.688-20.222-5.81-44.195-5.81-69.877 0-67.508 14.69-123.086 33.584-130.235 27.269.906 59.833 3.698 94.818 10.261-18.481 2.359-33.254 55.177-33.254 119.975 0 24.158 2.05 46.647 5.584 65.478 5.944 31.697 16.081 53.032 27.68 54.495z" fill="#f1f1f4"/><path d="m344.395 307.128c-34.995 6.562-67.57 9.364-94.849 10.261-11.693-4.45-21.975-28.546-27.95-61.45 27.351-.371 59.9-1.185 94.987-4.007 5.945 31.698 16.213 53.733 27.812 55.196z" fill="#dddaec"/><path d="m94.382 512h-49.667v-487.167c0-13.715 11.119-24.833 24.834-24.833 13.715 0 24.833 11.118 24.833 24.833z" fill="#ecc373"/><path d="m81.967 3.327c-7.417 4.286-12.414 12.311-12.414 21.51v487.163h-24.838v-487.162c0-13.722 11.126-24.838 24.838-24.838 4.523 0 8.767 1.205 12.414 3.327z" fill="#dab46b"/><g fill="#f1f1f4"><path d="m44.722 137.037c-2.548 0-5.043-1.26-6.518-3.567-2.298-3.596-1.245-8.373 2.35-10.671 52.241-33.386 124.699-37.636 127.758-37.801 4.281-.227 7.901 3.04 8.13 7.3.229 4.261-3.039 7.901-7.3 8.13-.879.049-71.567 4.268-120.266 35.391-1.288.825-2.73 1.218-4.154 1.218z"/><path d="m168.734 287.212c-.14 0-.28-.004-.422-.011-3.059-.164-75.517-4.414-127.758-37.801-3.596-2.298-4.648-7.075-2.35-10.671s7.075-4.648 10.672-2.35c48.848 31.219 119.558 35.353 120.266 35.391 4.261.229 7.53 3.869 7.3 8.13-.221 4.12-3.631 7.312-7.708 7.312z"/><path d="m401.558 401.207h-243.287c-4.267 0-7.726-3.459-7.726-7.726s3.459-7.726 7.726-7.726h243.287c4.267 0 7.726 3.459 7.726 7.726 0 4.266-3.459 7.726-7.726 7.726z"/><path d="m279.915 435.344h-141.511c-4.267 0-7.726-3.459-7.726-7.726s3.459-7.726 7.726-7.726h141.511c4.267 0 7.726 3.459 7.726 7.726 0 4.266-3.459 7.726-7.726 7.726z"/><path d="m403.989 23.287h-141.51c-4.267 0-7.726-3.459-7.726-7.726s3.459-7.726 7.726-7.726h141.511c4.267 0 7.726 3.459 7.726 7.726s-3.459 7.726-7.727 7.726z"/></g></g></svg>